<svg width="208" height="51" viewBox="0 0 208 51" fill="none" xmlns="http://www.w3.org/2000/svg">
<path d="M89.9203 34.905H82.4509V9.33667H89.9203V18.9607H100.263V9.33667H107.732V34.905H100.263V24.85H89.9203V34.905Z" fill="#DD0B2C"/>
<path d="M37.9266 40.7939V41.9431H34.9101V47.8324H33.761V40.7939H37.9266Z" fill="black"/>
<path d="M42.798 44.385C41.3616 44.385 39.7816 44.6723 39.7816 45.9651C39.7816 46.8269 40.3561 47.1142 40.9307 47.1142C41.7925 47.1142 42.3671 46.5396 42.6544 45.9651C42.6544 45.8214 42.798 45.6778 42.798 45.5341V44.385ZM42.9417 47.8324L42.798 46.9706C42.3671 47.5451 41.6489 47.976 40.6434 47.976C39.207 47.976 38.4888 46.9706 38.4888 45.9651C38.4888 44.2414 39.9252 43.3795 42.6544 43.3795V43.2359C42.6544 42.6613 42.5107 41.6558 41.0743 41.6558C40.3561 41.6558 39.7815 41.9431 39.207 42.2304L38.9197 41.3685C39.4943 41.0812 40.3561 40.7939 41.218 40.7939C43.3726 40.7939 43.8035 42.2304 43.8035 43.6668V46.2523C43.8035 46.8269 43.8035 47.4015 43.9472 47.976H42.9417V47.8324Z" fill="black"/>
<path d="M51.4329 40.7939V47.8324H50.1401V41.7994H47.6982V43.6668C47.6982 45.6778 47.5546 46.9706 46.5491 47.5451C46.2618 47.8324 45.8308 47.976 45.1126 47.976L44.969 46.9706C45.2563 46.9706 45.5436 46.8269 45.6872 46.6833C46.4054 46.2523 46.4054 45.2468 46.4054 43.6668V40.7939H51.4329Z" fill="black"/>
<path d="M57.8813 43.6668C57.8813 42.8049 57.594 41.6558 56.1576 41.6558C54.8648 41.6558 54.2903 42.8049 54.1466 43.6668H57.8813ZM54.1466 44.6723C54.1466 46.396 55.2957 47.1142 56.5885 47.1142C57.4504 47.1142 58.0249 46.9705 58.5995 46.8269L58.8868 47.6888C58.4559 47.976 57.7377 48.1197 56.5885 48.1197C54.4339 48.1197 53.1411 46.6833 53.1411 44.5286C53.1411 42.374 54.4339 40.7939 56.4449 40.7939C58.7432 40.7939 59.3177 42.8049 59.3177 44.0977C59.3177 44.385 59.3177 44.5286 59.3177 44.6723H54.1466Z" fill="black"/>
<path d="M61.9073 44.9599C61.9073 45.1035 61.9073 45.2472 61.9073 45.5345C62.1946 46.3963 62.9128 46.9709 63.7746 46.9709C65.0674 46.9709 65.9293 45.8217 65.9293 44.2417C65.9293 42.8053 65.211 41.6561 63.9183 41.6561C63.0564 41.6561 62.1946 42.2307 62.0509 43.2362C62.0509 43.3798 61.9073 43.5235 61.9073 43.8108V44.9599ZM60.7581 43.2362C60.7581 42.3743 60.7581 41.6561 60.7581 40.9379H61.7636V42.0871C62.3382 41.2252 63.0564 40.6506 64.2056 40.6506C65.9293 40.6506 67.222 42.0871 67.222 44.2417C67.222 46.8272 65.642 47.9764 64.0619 47.9764C63.2001 47.9764 62.3382 47.5455 61.9073 46.8272V50.7056H60.6145V43.2362H60.7581Z" fill="black"/>
<path d="M73.4042 43.6668C73.4042 42.8049 73.117 41.6558 71.6805 41.6558C70.3878 41.6558 69.8132 42.8049 69.6696 43.6668H73.4042ZM69.6696 44.6723C69.6696 46.396 70.8187 47.1142 72.1115 47.1142C72.9733 47.1142 73.5479 46.9705 74.1225 46.8269L74.4097 47.6888C73.9788 47.976 73.2606 48.1197 72.1115 48.1197C69.9568 48.1197 68.6641 46.6833 68.6641 44.5286C68.6641 42.374 69.9568 40.7939 71.9678 40.7939C74.2661 40.7939 74.8407 42.8049 74.8407 44.0977C74.8407 44.385 74.8407 44.5286 74.8407 44.6723H69.6696Z" fill="black"/>
<path d="M80.1458 41.6564C79.7149 41.6564 79.4276 41.6564 78.9967 41.6564C78.1348 41.6564 77.1293 41.9437 77.1293 42.8056C77.1293 43.6674 78.2784 43.9547 78.9967 43.9547H80.0021L80.1458 41.6564ZM81.2949 47.833H80.0021V44.9602H79.1403C78.5657 44.9602 78.2784 45.1039 77.9912 45.3911C77.4166 45.8221 77.2729 46.6839 76.9857 47.4021C76.842 47.6894 76.842 47.8331 76.6984 47.9767H75.262C75.4056 47.6894 75.5492 47.5458 75.6929 47.1148C75.9802 46.3966 76.1238 45.5348 76.842 44.9602C77.1293 44.8166 77.2729 44.6729 77.7039 44.5293C76.842 44.3856 75.8365 43.8111 75.8365 42.8056C75.8365 42.0874 76.2675 41.6564 76.6984 41.3692C77.273 41.0819 78.1348 40.9382 78.9967 40.9382C79.8585 40.9382 80.5767 41.0819 81.2949 41.0819V47.833Z" fill="black"/>
<path d="M87.6174 40.7939V43.8104C87.6174 44.9596 87.6174 45.6778 87.4738 46.5396C87.9047 45.6778 88.192 45.2468 88.6229 44.385L90.7775 40.7939H92.2139V47.8324H91.0648V44.8159C91.0648 43.6668 91.0648 43.0922 91.2084 41.9431C90.7775 42.8049 90.4902 43.3795 90.0593 44.0977C89.3411 45.2468 88.6229 46.5396 87.9047 47.8324H86.4683V40.7939H87.6174Z" fill="black"/>
<path d="M95.6612 40.7939V43.6668H98.965V40.7939H100.258V47.8324H98.965V44.6723H95.6612V47.8324H94.3684V40.7939H95.6612Z" fill="black"/>
<path d="M107.016 40.7939V41.9431H104.861V47.8324H103.569V41.9431H101.414V40.7939H107.016Z" fill="black"/>
<path d="M112.469 43.6668C112.469 42.8049 112.182 41.6558 110.746 41.6558C109.453 41.6558 108.878 42.8049 108.735 43.6668H112.469ZM108.591 44.6723C108.591 46.396 109.74 47.1142 111.033 47.1142C111.895 47.1142 112.469 46.9705 113.044 46.8269L113.331 47.6888C112.9 47.976 112.182 48.1197 111.033 48.1197C108.878 48.1197 107.585 46.6833 107.585 44.5286C107.585 42.374 108.878 40.7939 110.889 40.7939C113.187 40.7939 113.762 42.8049 113.762 44.0977C113.762 44.385 113.762 44.5286 113.762 44.6723H108.591Z" fill="black"/>
<path d="M116.501 44.9599C116.501 45.1035 116.501 45.2472 116.501 45.5345C116.788 46.3963 117.506 46.9709 118.368 46.9709C119.661 46.9709 120.523 45.8217 120.523 44.2417C120.523 42.8053 119.805 41.6561 118.512 41.6561C117.65 41.6561 116.788 42.2307 116.644 43.2362C116.644 43.3798 116.501 43.5235 116.501 43.8108V44.9599ZM115.208 43.2362C115.208 42.3743 115.208 41.6561 115.208 40.9379H116.357V42.0871C116.932 41.2252 117.65 40.6506 118.799 40.6506C120.523 40.6506 121.816 42.0871 121.816 44.2417C121.816 46.8272 120.235 47.9764 118.655 47.9764C117.794 47.9764 116.932 47.5455 116.501 46.8272V50.7056H115.208V43.2362Z" fill="black"/>
<path d="M124.689 46.9706C124.976 46.9706 125.264 46.9706 125.551 46.9706C126.557 46.9706 127.706 46.6833 127.706 45.5341C127.706 44.385 126.413 44.0977 125.551 44.0977C125.264 44.0977 124.976 44.0977 124.689 44.2414V46.9706ZM124.689 40.7939V43.2359C124.976 43.2359 125.551 43.0922 125.838 43.0922C127.418 43.0922 129.142 43.5231 129.142 45.3905C129.142 46.1087 128.855 46.6833 128.424 46.9706C127.706 47.6888 126.413 47.8324 125.407 47.8324C124.689 47.8324 123.971 47.8324 123.54 47.6888V40.7939H124.689Z" fill="black"/>
<path d="M135.019 43.6668C135.019 42.8049 134.731 41.6558 133.295 41.6558C132.002 41.6558 131.427 42.8049 131.284 43.6668H135.019ZM131.284 44.6723C131.284 46.396 132.433 47.1142 133.726 47.1142C134.588 47.1142 135.162 46.9705 135.737 46.8269L136.024 47.6888C135.593 47.976 134.875 48.1197 133.726 48.1197C131.571 48.1197 130.278 46.6833 130.278 44.5286C130.278 42.374 131.571 40.7939 133.582 40.7939C135.88 40.7939 136.455 42.8049 136.455 44.0977C136.455 44.385 136.455 44.5286 136.455 44.6723H131.284Z" fill="black"/>
<path d="M139.047 44.9599C139.047 45.1035 139.047 45.2472 139.047 45.5345C139.335 46.3963 140.053 46.9709 140.915 46.9709C142.208 46.9709 143.069 45.8217 143.069 44.2417C143.069 42.8053 142.351 41.6561 141.058 41.6561C140.197 41.6561 139.335 42.2307 139.191 43.2362C139.191 43.3798 139.047 43.5235 139.047 43.8108V44.9599ZM137.755 43.2362C137.755 42.3743 137.755 41.6561 137.755 40.9379H138.904V42.0871C139.478 41.2252 140.197 40.6506 141.346 40.6506C143.069 40.6506 144.362 42.0871 144.362 44.2417C144.362 46.8272 142.782 47.9764 141.202 47.9764C140.34 47.9764 139.478 47.5455 139.047 46.8272V50.7056H137.755V43.2362Z" fill="black"/>
<path d="M146.808 44.385C146.808 45.9651 147.67 47.1142 148.963 47.1142C150.112 47.1142 151.117 45.9651 151.117 44.385C151.117 43.2359 150.543 41.6558 149.106 41.6558C147.526 41.6558 146.808 43.0922 146.808 44.385ZM152.41 44.385C152.41 46.9706 150.686 48.1197 148.963 48.1197C147.095 48.1197 145.659 46.6833 145.659 44.5286C145.659 42.2304 147.239 40.7939 149.106 40.7939C150.974 40.7939 152.41 42.2304 152.41 44.385Z" fill="black"/>
<path d="M155.13 43.8104H156.135C156.997 43.8104 158.003 43.5231 158.003 42.6613C158.003 41.9431 157.428 41.6558 156.135 41.6558C155.704 41.6558 155.417 41.6558 155.13 41.6558V43.8104ZM155.13 46.9706C155.417 46.9706 155.704 46.9706 156.135 46.9706C156.997 46.9706 158.29 46.6833 158.29 45.8214C158.29 44.8159 157.284 44.5286 156.135 44.5286H155.13V46.9706ZM153.981 40.9376C154.411 40.7939 155.417 40.7939 156.135 40.7939C157.284 40.7939 159.295 40.9376 159.295 42.5177C159.295 43.3795 158.577 43.9541 157.859 44.0977C158.864 44.2414 159.583 44.8159 159.583 45.8214C159.583 47.6888 157.284 47.8324 155.848 47.8324C154.986 47.8324 154.268 47.8324 153.837 47.6888V40.9376H153.981Z" fill="black"/>
<path d="M195.934 31.3143C189.47 31.3143 188.321 25.7123 188.321 22.5521C188.321 17.2374 191.481 13.79 195.79 13.79C199.956 13.79 202.828 17.0937 202.828 22.4085C202.828 26.7178 200.961 31.3143 195.934 31.3143ZM196.077 9.48071C191.193 9.48071 189.039 12.4972 188.177 13.6463V10.0553H183.58V47.9768H188.177V32.1762C190.044 34.1871 192.773 35.6236 196.365 35.6236C205.127 35.6236 208 27.8669 208 22.4085C208 16.2319 204.696 9.48071 196.077 9.48071ZM167.349 31.7452C159.592 31.7452 159.449 24.2758 159.449 22.4085C159.449 19.392 160.741 13.359 167.349 13.359C174.531 13.359 175.393 19.9666 175.393 22.4085C175.393 25.8559 174.244 31.7452 167.349 31.7452ZM167.349 9.48071C161.029 9.48071 154.134 13.9336 154.134 22.2649C154.134 27.436 156.719 35.4799 167.349 35.4799C177.978 35.4799 180.564 27.1487 180.564 22.2649C180.708 13.9336 173.813 9.48071 167.349 9.48071ZM134.311 13.9336H141.924V35.049H146.521V13.9336H154.134V10.0553H134.311V13.9336ZM123.538 31.7452C118.654 31.7452 116.069 28.2978 116.069 22.8394C116.069 16.2319 119.372 13.359 123.538 13.359C126.411 13.359 128.422 14.5082 130.433 16.5192L133.018 13.359C129.858 10.4862 126.842 9.48071 123.969 9.48071C116.356 9.48071 110.754 14.7955 110.754 22.8394C110.754 29.1597 114.201 35.4799 123.251 35.4799C125.836 35.4799 130.002 34.9054 133.449 30.3088L130.433 27.7232C128.278 30.4524 126.555 31.7452 123.538 31.7452Z" fill="#B8B6B8"/>
<path d="M29.5903 0H0V5.88932H29.5903V0Z" fill="#B8B6B8"/>
<path d="M69.67 13.215V9.33667H77.1394V34.905H69.67V21.9772L60.9079 31.3139V34.905H53.4385V9.33667H60.9079V22.6954L69.67 13.215Z" fill="#DD0B2C"/>
<path d="M39.2172 30.5955H34.3334V24.5626H38.3553C39.9354 24.5626 42.2337 24.8498 42.2337 27.7227C42.3773 29.0155 41.8027 30.5955 39.2172 30.5955ZM34.477 14.5076H37.3498C39.6481 14.5076 41.6591 14.7949 41.6591 17.5241C41.6591 20.5406 38.7863 20.3969 37.4935 20.3969H34.477V14.5076ZM44.8192 21.977V21.5461C47.4048 21.1151 49.1285 18.9605 49.1285 15.8004C49.1285 10.6293 43.6701 9.62378 37.6371 9.62378H0.433838V15.8004H10.2015V35.1921H18.5327V15.944H29.1622L26.864 18.0987V35.3357H39.0735C43.2392 35.3357 50.4213 35.0484 50.4213 27.579C50.5649 24.2753 47.5484 22.2643 44.8192 21.977Z" fill="#DD0B2C"/>
</svg>
