<svg width="35" height="35" viewBox="0 0 35 35" fill="none" xmlns="http://www.w3.org/2000/svg">
<path d="M19.6866 12.2364H21.9C21.9552 12.2364 22 12.1916 22 12.1364V9.1C22 9.04477 21.9552 9 21.9 9H19.2865C19.2832 9 19.2805 9.00266 19.2805 9.00593V9.00593C19.2805 9.00913 19.2779 9.01176 19.2747 9.01187C15.9866 9.12421 15.3109 10.8753 15.2507 12.7154C15.2506 12.7173 15.2491 12.7188 15.2472 12.7188V12.7188C15.2453 12.7188 15.2438 12.7203 15.2438 12.7222V14.2349C15.2438 14.2901 15.199 14.3349 15.1438 14.3349H13.1C13.0448 14.3349 13 14.3796 13 14.4349V17.4043C13 17.4595 13.0448 17.5043 13.1 17.5043H15.1438C15.199 17.5043 15.2438 17.549 15.2438 17.6043V25.9C15.2438 25.9552 15.2885 26 15.3438 26H18.5253C18.5805 26 18.6253 25.9552 18.6253 25.9V17.6043C18.6253 17.549 18.67 17.5043 18.7253 17.5043H21.3107C21.3595 17.5043 21.4012 17.469 21.4093 17.4209L21.9107 14.4515C21.921 14.3905 21.874 14.3349 21.8121 14.3349H18.7264C18.6712 14.3349 18.6264 14.2901 18.6264 14.2349V13.3585C18.6264 12.7358 19.0639 12.2364 19.6866 12.2364Z" stroke="#787878"/>
<circle cx="17.5" cy="17.5" r="17" stroke="#787878"/>
</svg>
