<svg width="35" height="35" viewBox="0 0 35 35" fill="none" xmlns="http://www.w3.org/2000/svg">
<mask id="path-1-inside-1" fill="white">
<path fill-rule="evenodd" clip-rule="evenodd" d="M27.3504 13.346C27.3013 12.2734 27.131 11.541 26.8819 10.9002C26.629 10.2279 26.2323 9.61887 25.7198 9.11551C25.2165 8.60293 24.6074 8.20611 23.9351 7.95305C23.2941 7.70413 22.5618 7.53394 21.4893 7.4852C20.4148 7.436 20.0715 7.42432 17.3351 7.42432C14.5988 7.42432 14.2554 7.436 13.1809 7.48489C12.1084 7.53394 11.3761 7.70429 10.7351 7.95335C10.0628 8.20626 9.45383 8.60293 8.95047 9.11551C8.43789 9.61872 8.04107 10.2277 7.78801 10.9C7.53909 11.541 7.3689 12.2734 7.32016 13.3458C7.27096 14.4205 7.25928 14.7636 7.25928 17.5C7.25928 20.2365 7.27096 20.5798 7.32016 21.6543C7.36905 22.7267 7.5394 23.4592 7.78847 24.1001C8.04138 24.7723 8.43804 25.3814 8.95063 25.8846C9.45383 26.3972 10.063 26.7939 10.7353 27.0468C11.3761 27.296 12.1085 27.4662 13.1811 27.5153C14.2558 27.5643 14.5989 27.5758 17.3353 27.5758C20.0716 27.5758 20.4149 27.5643 21.4895 27.5153C22.562 27.4662 23.2943 27.296 23.9352 27.0468C25.2887 26.5234 26.3586 25.4535 26.8819 24.1001C27.1311 23.4592 27.3013 22.7267 27.3504 21.6543C27.3993 20.5797 27.4109 20.2365 27.4109 17.5002C27.4109 14.7636 27.3993 14.4205 27.3504 13.346ZM25.5366 21.5718C25.4919 22.5542 25.3277 23.0877 25.1898 23.4427C24.8508 24.3215 24.1563 25.016 23.2775 25.355C22.9225 25.4929 22.389 25.6571 21.4066 25.7018C20.3444 25.7504 20.0257 25.7606 17.3351 25.7606C14.6444 25.7606 14.3259 25.7504 13.2635 25.7018C12.2812 25.6571 11.7477 25.4929 11.3926 25.355C10.955 25.1934 10.5591 24.9359 10.2341 24.6012C9.89939 24.2762 9.64186 23.8804 9.48028 23.4427C9.34237 23.0877 9.17817 22.5542 9.13343 21.5718C9.085 20.5094 9.0747 20.1907 9.0747 17.5003C9.0747 14.8098 9.085 14.4912 9.13343 13.4287C9.17832 12.4462 9.34237 11.9127 9.48028 11.5578C9.64186 11.12 9.89954 10.7241 10.2341 10.3991C10.5591 10.0644 10.955 9.8069 11.3927 9.64547C11.7477 9.50741 12.2812 9.34336 13.2636 9.29847C14.326 9.25004 14.6447 9.23974 17.3351 9.23974C20.0254 9.23974 20.3441 9.25004 21.4066 9.29862C22.389 9.34336 22.9224 9.50756 23.2775 9.64547C23.7151 9.80706 24.111 10.0646 24.436 10.3991C24.7707 10.7241 25.0282 11.12 25.1896 11.5578C25.3277 11.9127 25.4919 12.4462 25.5366 13.4287C25.5851 14.4911 25.5954 14.8098 25.5954 17.5002C25.5954 20.1907 25.5852 20.5092 25.5366 21.5718ZM17.3352 12.3251C14.4777 12.3251 12.1612 14.6417 12.1612 17.4992C12.1612 20.3567 14.4777 22.6732 17.3352 22.6732C20.1928 22.6732 22.5093 20.3567 22.5093 17.4992C22.5093 14.6417 20.1928 12.3251 17.3352 12.3251ZM17.3352 20.8578C15.4804 20.8576 13.9766 19.354 13.9768 17.4991C13.9768 15.6443 15.4804 14.1405 17.3353 14.1405C19.1903 14.1407 20.6939 15.6443 20.6939 17.4991C20.6939 19.354 19.1901 20.8578 17.3352 20.8578ZM22.714 13.3306C23.3817 13.3306 23.923 12.7893 23.923 12.1215C23.923 11.4537 23.3817 10.9123 22.714 10.9123C22.0461 10.9123 21.5047 11.4537 21.5047 12.1215C21.5047 12.7893 22.0461 13.3306 22.714 13.3306Z"/>
</mask>
<path fill-rule="evenodd" clip-rule="evenodd" d="M27.3504 13.346C27.3013 12.2734 27.131 11.541 26.8819 10.9002C26.629 10.2279 26.2323 9.61887 25.7198 9.11551C25.2165 8.60293 24.6074 8.20611 23.9351 7.95305C23.2941 7.70413 22.5618 7.53394 21.4893 7.4852C20.4148 7.436 20.0715 7.42432 17.3351 7.42432C14.5988 7.42432 14.2554 7.436 13.1809 7.48489C12.1084 7.53394 11.3761 7.70429 10.7351 7.95335C10.0628 8.20626 9.45383 8.60293 8.95047 9.11551C8.43789 9.61872 8.04107 10.2277 7.78801 10.9C7.53909 11.541 7.3689 12.2734 7.32016 13.3458C7.27096 14.4205 7.25928 14.7636 7.25928 17.5C7.25928 20.2365 7.27096 20.5798 7.32016 21.6543C7.36905 22.7267 7.5394 23.4592 7.78847 24.1001C8.04138 24.7723 8.43804 25.3814 8.95063 25.8846C9.45383 26.3972 10.063 26.7939 10.7353 27.0468C11.3761 27.296 12.1085 27.4662 13.1811 27.5153C14.2558 27.5643 14.5989 27.5758 17.3353 27.5758C20.0716 27.5758 20.4149 27.5643 21.4895 27.5153C22.562 27.4662 23.2943 27.296 23.9352 27.0468C25.2887 26.5234 26.3586 25.4535 26.8819 24.1001C27.1311 23.4592 27.3013 22.7267 27.3504 21.6543C27.3993 20.5797 27.4109 20.2365 27.4109 17.5002C27.4109 14.7636 27.3993 14.4205 27.3504 13.346ZM25.5366 21.5718C25.4919 22.5542 25.3277 23.0877 25.1898 23.4427C24.8508 24.3215 24.1563 25.016 23.2775 25.355C22.9225 25.4929 22.389 25.6571 21.4066 25.7018C20.3444 25.7504 20.0257 25.7606 17.3351 25.7606C14.6444 25.7606 14.3259 25.7504 13.2635 25.7018C12.2812 25.6571 11.7477 25.4929 11.3926 25.355C10.955 25.1934 10.5591 24.9359 10.2341 24.6012C9.89939 24.2762 9.64186 23.8804 9.48028 23.4427C9.34237 23.0877 9.17817 22.5542 9.13343 21.5718C9.085 20.5094 9.0747 20.1907 9.0747 17.5003C9.0747 14.8098 9.085 14.4912 9.13343 13.4287C9.17832 12.4462 9.34237 11.9127 9.48028 11.5578C9.64186 11.12 9.89954 10.7241 10.2341 10.3991C10.5591 10.0644 10.955 9.8069 11.3927 9.64547C11.7477 9.50741 12.2812 9.34336 13.2636 9.29847C14.326 9.25004 14.6447 9.23974 17.3351 9.23974C20.0254 9.23974 20.3441 9.25004 21.4066 9.29862C22.389 9.34336 22.9224 9.50756 23.2775 9.64547C23.7151 9.80706 24.111 10.0646 24.436 10.3991C24.7707 10.7241 25.0282 11.12 25.1896 11.5578C25.3277 11.9127 25.4919 12.4462 25.5366 13.4287C25.5851 14.4911 25.5954 14.8098 25.5954 17.5002C25.5954 20.1907 25.5852 20.5092 25.5366 21.5718ZM17.3352 12.3251C14.4777 12.3251 12.1612 14.6417 12.1612 17.4992C12.1612 20.3567 14.4777 22.6732 17.3352 22.6732C20.1928 22.6732 22.5093 20.3567 22.5093 17.4992C22.5093 14.6417 20.1928 12.3251 17.3352 12.3251ZM17.3352 20.8578C15.4804 20.8576 13.9766 19.354 13.9768 17.4991C13.9768 15.6443 15.4804 14.1405 17.3353 14.1405C19.1903 14.1407 20.6939 15.6443 20.6939 17.4991C20.6939 19.354 19.1901 20.8578 17.3352 20.8578ZM22.714 13.3306C23.3817 13.3306 23.923 12.7893 23.923 12.1215C23.923 11.4537 23.3817 10.9123 22.714 10.9123C22.0461 10.9123 21.5047 11.4537 21.5047 12.1215C21.5047 12.7893 22.0461 13.3306 22.714 13.3306Z" fill="#787878"/>
<path d="M26.8819 10.9002L26.5075 11.041L26.5091 11.0451L26.8819 10.9002ZM27.3504 13.346L27.75 13.3278L27.75 13.3277L27.3504 13.346ZM25.7198 9.11551L25.4343 9.39578L25.4395 9.40091L25.7198 9.11551ZM23.9351 7.95305L23.7903 8.32594L23.7942 8.3274L23.9351 7.95305ZM21.4893 7.4852L21.471 7.88478L21.4711 7.88479L21.4893 7.4852ZM13.1809 7.48489L13.1627 7.08531L13.1626 7.08531L13.1809 7.48489ZM10.7351 7.95335L10.876 8.32776L10.88 8.32619L10.7351 7.95335ZM8.95047 9.11551L9.23074 9.401L9.23587 9.39577L8.95047 9.11551ZM7.78801 10.9L8.1609 11.0448L8.16237 11.0409L7.78801 10.9ZM7.32016 13.3458L7.71974 13.3641L7.71975 13.364L7.32016 13.3458ZM7.32016 21.6543L7.71975 21.6361L7.71974 21.636L7.32016 21.6543ZM7.78847 24.1001L8.16287 23.9592L8.16131 23.9552L7.78847 24.1001ZM8.95063 25.8846L9.23612 25.6044L9.23085 25.5992L8.95063 25.8846ZM10.7353 27.0468L10.8803 26.674L10.8761 26.6724L10.7353 27.0468ZM13.1811 27.5153L13.1628 27.9148L13.1628 27.9148L13.1811 27.5153ZM21.4895 27.5153L21.5077 27.9148L21.5077 27.9148L21.4895 27.5153ZM23.9352 27.0468L23.791 26.6737L23.7903 26.674L23.9352 27.0468ZM26.8819 24.1001L26.5091 23.9552L26.5088 23.9559L26.8819 24.1001ZM27.3504 21.6543L27.75 21.6726L27.75 21.6725L27.3504 21.6543ZM25.1898 23.4427L24.8169 23.2979L24.8166 23.2987L25.1898 23.4427ZM25.5366 21.5718L25.1371 21.5535L25.1371 21.5536L25.5366 21.5718ZM23.2775 25.355L23.1335 24.9818L23.1327 24.9821L23.2775 25.355ZM21.4066 25.7018L21.3884 25.3022L21.3883 25.3023L21.4066 25.7018ZM13.2635 25.7018L13.2818 25.3023L13.2817 25.3022L13.2635 25.7018ZM11.3926 25.355L11.5374 24.9821L11.5311 24.9798L11.3926 25.355ZM10.2341 24.6012L10.5212 24.3224L10.5127 24.3142L10.2341 24.6012ZM9.48028 23.4427L9.85558 23.3042L9.85313 23.2979L9.48028 23.4427ZM9.13343 21.5718L9.53302 21.5536L9.53301 21.5536L9.13343 21.5718ZM9.13343 13.4287L8.73385 13.4104L8.73384 13.4105L9.13343 13.4287ZM9.48028 11.5578L9.85318 11.7026L9.85553 11.6963L9.48028 11.5578ZM10.2341 10.3991L10.5129 10.6862L10.5211 10.6778L10.2341 10.3991ZM11.3927 9.64547L11.5311 10.0208L11.5377 10.0183L11.3927 9.64547ZM13.2636 9.29847L13.2454 8.89888L13.2454 8.89889L13.2636 9.29847ZM17.3351 9.23974V8.83974V9.23974ZM21.4066 9.29862L21.3883 9.6982L21.3884 9.69821L21.4066 9.29862ZM23.2775 9.64547L23.1327 10.0184L23.1389 10.0207L23.2775 9.64547ZM24.436 10.3991L24.149 10.678L24.1573 10.6861L24.436 10.3991ZM25.1896 11.5578L24.8143 11.6962L24.8168 11.7027L25.1896 11.5578ZM25.5366 13.4287L25.1371 13.4469V13.4469L25.5366 13.4287ZM13.9768 17.4991L14.3768 17.4991V17.4991H13.9768ZM17.3352 20.8578L17.3351 21.2578H17.3352V20.8578ZM17.3353 14.1405L17.3354 13.7405H17.3353V14.1405ZM26.5091 11.0451C26.7405 11.6406 26.9035 12.3296 26.9508 13.3642L27.75 13.3277C27.6992 12.2173 27.5214 11.4414 27.2547 10.7553L26.5091 11.0451ZM25.4395 9.40091C25.9106 9.86354 26.2751 10.4232 26.5075 11.041L27.2563 10.7594C26.9829 10.0325 26.5541 9.3742 26 8.83011L25.4395 9.40091ZM23.7942 8.3274C24.412 8.55997 24.9718 8.92465 25.4343 9.39573L26.0052 8.83529C25.4612 8.2812 24.8028 7.85225 24.076 7.57869L23.7942 8.3274ZM21.4711 7.88479C22.5057 7.9318 23.1946 8.09458 23.7903 8.32592L24.0799 7.58017C23.3937 7.31368 22.6179 7.13607 21.5075 7.08561L21.4711 7.88479ZM17.3351 7.82432C20.0695 7.82432 20.4056 7.836 21.471 7.88478L21.5076 7.08562C20.4239 7.036 20.0734 7.02432 17.3351 7.02432V7.82432ZM13.1991 7.88448C14.2645 7.836 14.6007 7.82432 17.3351 7.82432V7.02432C14.5968 7.02432 14.2464 7.036 13.1627 7.08531L13.1991 7.88448ZM10.88 8.32619C11.4757 8.09471 12.1646 7.93178 13.1992 7.88447L13.1626 7.08531C12.0522 7.13609 11.2765 7.31386 10.5903 7.58051L10.88 8.32619ZM9.23587 9.39577C9.6985 8.92467 10.2582 8.56014 10.876 8.32774L10.5943 7.57897C9.86747 7.85238 9.20916 8.28119 8.66507 8.83525L9.23587 9.39577ZM8.16237 11.0409C8.39492 10.4231 8.75959 9.86344 9.23069 9.40095L8.67025 8.83007C8.11618 9.374 7.68722 10.0323 7.41365 10.7591L8.16237 11.0409ZM7.71975 13.364C7.76676 12.3295 7.92954 11.6405 8.16088 11.0448L7.41514 10.7552C7.14864 11.4415 6.97103 12.2173 6.92057 13.3276L7.71975 13.364ZM7.65928 17.5C7.65928 14.7656 7.67096 14.4296 7.71974 13.3641L6.92058 13.3275C6.87096 14.4113 6.85928 14.7617 6.85928 17.5H7.65928ZM7.71974 21.636C7.67096 20.5707 7.65928 20.2345 7.65928 17.5H6.85928C6.85928 20.2385 6.87096 20.589 6.92058 21.6726L7.71974 21.636ZM8.16131 23.9552C7.92983 23.3595 7.76691 22.6705 7.71975 21.6361L6.92058 21.6726C6.9712 22.7829 7.14897 23.5588 7.41563 24.245L8.16131 23.9552ZM9.23085 25.5992C8.75979 25.1368 8.39526 24.577 8.16284 23.9593L7.41409 24.241C7.68749 24.9676 8.11629 25.6261 8.67041 26.1701L9.23085 25.5992ZM10.8761 26.6724C10.2583 26.44 9.6985 26.0755 9.23607 25.6044L8.66518 26.1649C9.20917 26.719 9.86766 27.1478 10.5945 27.4212L10.8761 26.6724ZM13.1993 27.1157C12.1647 27.0684 11.4757 26.9056 10.8803 26.674L10.5903 27.4196C11.2765 27.6865 12.0524 27.8641 13.1628 27.9148L13.1993 27.1157ZM17.3353 27.1758C14.6008 27.1758 14.2648 27.1643 13.1993 27.1157L13.1628 27.9148C14.2467 27.9643 14.597 27.9758 17.3353 27.9758V27.1758ZM21.4712 27.1157C20.4058 27.1643 20.0697 27.1758 17.3353 27.1758V27.9758C20.0736 27.9758 20.424 27.9643 21.5077 27.9148L21.4712 27.1157ZM23.7903 26.674C23.1947 26.9056 22.5058 27.0684 21.4712 27.1157L21.5077 27.9148C22.6181 27.8641 23.3939 27.6865 24.0802 27.4196L23.7903 26.674ZM26.5088 23.9559C26.0261 25.2042 25.0393 26.191 23.791 26.6737L24.0795 27.4199C25.538 26.8559 26.691 25.7029 27.255 24.2444L26.5088 23.9559ZM26.9508 21.6361C26.9035 22.6706 26.7407 23.3596 26.5091 23.9552L27.2547 24.2451C27.5216 23.5588 27.6992 22.7828 27.75 21.6726L26.9508 21.6361ZM27.0109 17.5002C27.0109 20.2345 26.9993 20.5706 26.9508 21.6362L27.75 21.6725C27.7993 20.5888 27.8109 20.2385 27.8109 17.5002H27.0109ZM26.9508 13.3641C26.9993 14.4296 27.0109 14.7656 27.0109 17.5002H27.8109C27.8109 14.7617 27.7993 14.4114 27.75 13.3278L26.9508 13.3641ZM25.5626 23.5875C25.716 23.1928 25.8895 22.6166 25.9362 21.59L25.1371 21.5536C25.0943 22.4919 24.9394 22.9826 24.8169 23.2979L25.5626 23.5875ZM23.4215 25.7282C24.4056 25.3485 25.1833 24.5708 25.563 23.5867L24.8166 23.2987C24.5182 24.0722 23.907 24.6834 23.1335 24.9818L23.4215 25.7282ZM21.4248 26.1014C22.4514 26.0547 23.0276 25.8812 23.4224 25.7278L23.1327 24.9821C22.8174 25.1046 22.3267 25.2595 21.3884 25.3022L21.4248 26.1014ZM17.3351 26.1606C20.0273 26.1606 20.3533 26.1504 21.4249 26.1014L21.3883 25.3023C20.3354 25.3504 20.024 25.3606 17.3351 25.3606V26.1606ZM13.2452 26.1014C14.3169 26.1504 14.6427 26.1606 17.3351 26.1606V25.3606C14.6461 25.3606 14.3348 25.3504 13.2818 25.3023L13.2452 26.1014ZM11.2478 25.7279C11.6426 25.8812 12.2188 26.0547 13.2453 26.1014L13.2817 25.3022C12.3436 25.2595 11.8528 25.1046 11.5374 24.9821L11.2478 25.7279ZM9.94713 24.8798C10.3138 25.2574 10.7604 25.5479 11.254 25.7302L11.5311 24.9798C11.1496 24.8389 10.8044 24.6143 10.5211 24.3225L9.94713 24.8798ZM9.10503 23.5812C9.28732 24.075 9.57785 24.5215 9.95543 24.8881L10.5127 24.3142C10.2209 24.0308 9.99641 23.6858 9.85553 23.3042L9.10503 23.5812ZM8.73384 21.59C8.78059 22.6166 8.95406 23.1928 9.10742 23.5875L9.85313 23.2979C9.73067 22.9826 9.57574 22.4919 9.53302 21.5536L8.73384 21.59ZM8.6747 17.5003C8.6747 20.1924 8.68499 20.5184 8.73384 21.59L9.53301 21.5536C9.48501 20.5004 9.4747 20.189 9.4747 17.5003H8.6747ZM8.73384 13.4105C8.68499 14.4822 8.6747 14.808 8.6747 17.5003H9.4747C9.4747 14.8115 9.48501 14.5002 9.53301 13.4469L8.73384 13.4105ZM9.10742 11.4129C8.95404 11.8077 8.78075 12.3839 8.73385 13.4104L9.53301 13.4469C9.57589 12.5086 9.73069 12.0178 9.85313 11.7026L9.10742 11.4129ZM9.95536 10.1122C9.57801 10.4788 9.28733 10.9254 9.10503 11.4192L9.85553 11.6963C9.9964 11.3147 10.2211 10.9695 10.5128 10.686L9.95536 10.1122ZM11.2543 9.27018C10.7605 9.45231 10.3138 9.74286 9.94713 10.1205L10.5211 10.6778C10.8044 10.386 11.1495 10.1615 11.5311 10.0208L11.2543 9.27018ZM13.2454 8.89889C12.2189 8.94579 11.6427 9.11908 11.2477 9.27267L11.5377 10.0183C11.8528 9.89574 12.3435 9.74093 13.2819 9.69805L13.2454 8.89889ZM17.3351 8.83974C14.643 8.83974 14.317 8.85003 13.2454 8.89888L13.2819 9.69805C14.335 9.65005 14.6465 9.63974 17.3351 9.63974V8.83974ZM21.4249 8.89904C20.3531 8.85003 20.0271 8.83974 17.3351 8.83974V9.63974C20.0236 9.63974 20.3351 9.65005 21.3883 9.6982L21.4249 8.89904ZM23.4223 9.2726C23.0274 9.11927 22.4514 8.94579 21.4248 8.89904L21.3884 9.69821C22.3267 9.74094 22.8173 9.89586 23.1327 10.0183L23.4223 9.2726ZM24.7229 10.1204C24.3562 9.743 23.9096 9.45251 23.4161 9.27024L23.1389 10.0207C23.5205 10.1616 23.8657 10.3862 24.1491 10.6779L24.7229 10.1204ZM25.5649 11.4193C25.3828 10.9255 25.0923 10.4788 24.7146 10.1122L24.1573 10.6861C24.4491 10.9694 24.6736 11.3146 24.8144 11.6962L25.5649 11.4193ZM25.9362 13.4105C25.8895 12.3839 25.716 11.8076 25.5624 11.4128L24.8168 11.7027C24.9394 12.0179 25.0943 12.5086 25.1371 13.4469L25.9362 13.4105ZM25.9954 17.5002C25.9954 14.808 25.9851 14.4821 25.9362 13.4105L25.1371 13.4469C25.1851 14.5 25.1954 14.8115 25.1954 17.5002H25.9954ZM25.9362 21.5901C25.9852 20.5182 25.9954 20.1924 25.9954 17.5002H25.1954C25.1954 20.189 25.1852 20.5003 25.1371 21.5535L25.9362 21.5901ZM12.5612 17.4992C12.5612 14.8626 14.6986 12.7251 17.3352 12.7251V11.9251C14.2567 11.9251 11.7612 14.4208 11.7612 17.4992H12.5612ZM17.3352 22.2732C14.6986 22.2732 12.5612 20.1358 12.5612 17.4992H11.7612C11.7612 20.5776 14.2568 23.0732 17.3352 23.0732V22.2732ZM22.1093 17.4992C22.1093 20.1358 19.9719 22.2732 17.3352 22.2732V23.0732C20.4137 23.0732 22.9093 20.5777 22.9093 17.4992H22.1093ZM17.3352 12.7251C19.9719 12.7251 22.1093 14.8626 22.1093 17.4992H22.9093C22.9093 14.4208 20.4138 11.9251 17.3352 11.9251V12.7251ZM13.5768 17.499C13.5766 19.5749 15.2595 21.2576 17.3351 21.2578L17.3352 20.4578C15.7013 20.4577 14.3766 19.1331 14.3768 17.4991L13.5768 17.499ZM17.3353 13.7405C15.2595 13.7405 13.5768 15.4234 13.5768 17.4991H14.3768C14.3768 15.8652 15.7013 14.5405 17.3353 14.5405V13.7405ZM21.0939 17.4991C21.0939 15.4234 19.4112 13.7407 17.3354 13.7405L17.3353 14.5405C18.9694 14.5407 20.2939 15.8652 20.2939 17.4991H21.0939ZM17.3352 21.2578C19.411 21.2578 21.0939 19.5749 21.0939 17.4991H20.2939C20.2939 19.1331 18.9692 20.4578 17.3352 20.4578V21.2578ZM23.523 12.1215C23.523 12.5683 23.1608 12.9306 22.714 12.9306V13.7306C23.6026 13.7306 24.323 13.0102 24.323 12.1215H23.523ZM22.714 11.3123C23.1607 11.3123 23.523 11.6746 23.523 12.1215H24.323C24.323 11.2328 23.6026 10.5123 22.714 10.5123V11.3123ZM21.9047 12.1215C21.9047 11.6746 22.267 11.3123 22.714 11.3123V10.5123C21.8252 10.5123 21.1047 11.2328 21.1047 12.1215H21.9047ZM22.714 12.9306C22.267 12.9306 21.9047 12.5683 21.9047 12.1215H21.1047C21.1047 13.0102 21.8252 13.7306 22.714 13.7306V12.9306Z" fill="white" mask="url(#path-1-inside-1)"/>
<circle cx="17.5" cy="17.5" r="17" stroke="#787878"/>
</svg>
