<svg width="24" height="25" viewBox="0 0 24 25" fill="none" xmlns="http://www.w3.org/2000/svg">
<path d="M12.0015 24.6397C18.6286 24.6397 24.001 19.2675 24.001 12.6405C24.001 6.01356 18.6286 0.641357 12.0015 0.641357C5.37432 0.641357 0.00195312 6.01356 0.00195312 12.6405C0.00195312 19.2675 5.37432 24.6397 12.0015 24.6397Z" fill="white"/>
<path d="M23.3135 8.63867H15.9199C16.2411 11.202 16.243 14.0264 15.9262 16.5929H23.3293C23.7614 15.3548 23.999 14.0251 23.999 12.6397C23.9992 11.2361 23.7561 9.89011 23.3135 8.63867Z" fill="#2B479D"/>
<path d="M15.9193 8.6387H23.3127C23.3116 8.6349 23.3105 8.63171 23.3089 8.62826C21.7733 4.29802 17.8227 1.11212 13.0762 0.689209C14.9132 1.69604 15.4497 4.88595 15.9193 8.6387Z" fill="#EFECEC"/>
<path d="M13.0781 24.5895C17.8332 24.1659 21.7892 20.969 23.319 16.6271C23.323 16.6156 23.3264 16.6042 23.3306 16.593H15.9273C15.4613 20.3661 14.9225 23.5785 13.0781 24.5895Z" fill="#C90A28"/>
<path d="M0 12.6399C0 14.0255 0.237984 15.355 0.66977 16.5932H16.5445C16.8616 14.0264 16.8594 11.2022 16.5386 8.63892H0.68573C0.243101 9.89041 0 11.2364 0 12.6399Z" fill="#3757A6"/>
<path d="M0.689347 8.62844C0.688232 8.63184 0.687067 8.63508 0.685547 8.63888H16.5385C16.0686 4.88607 14.9143 1.69621 13.0775 0.689384C12.7222 0.65792 12.363 0.640137 11.9996 0.640137C6.77944 0.640086 2.34024 3.97394 0.689347 8.62844Z" fill="#EFEFEF"/>
<path d="M16.5446 16.593H0.669922C0.673925 16.6042 0.677674 16.6156 0.681474 16.6271C2.32577 21.2935 6.77135 24.6392 11.9999 24.6392C12.3633 24.6392 12.7225 24.6213 13.0778 24.5895C14.9223 23.5785 16.0786 20.3661 16.5446 16.593Z" fill="#DD0B2C"/>
</svg>
