<svg width="26" height="25" viewBox="0 0 26 25" fill="none" xmlns="http://www.w3.org/2000/svg">
<path d="M11.706 2.19578C12.2855 1.20731 13.7145 1.20731 14.294 2.19578L16.9932 6.79979C17.3457 7.401 17.9331 7.82779 18.6138 7.97723L23.8266 9.12162C24.9458 9.36732 25.3874 10.7264 24.6264 11.583L21.0818 15.5728C20.6189 16.0938 20.3945 16.7844 20.4628 17.4779L20.9852 22.7892C21.0974 23.9295 19.9413 24.7695 18.8915 24.3104L14.0016 22.1722C13.3631 21.893 12.6369 21.893 11.9984 22.1722L7.10853 24.3104C6.05868 24.7695 4.90261 23.9295 5.01478 22.7892L5.53724 17.4779C5.60546 16.7844 5.38108 16.0938 4.91822 15.5728L1.37365 11.583C0.612634 10.7264 1.05421 9.36732 2.17339 9.12162L7.38617 7.97723C8.06687 7.8278 8.6543 7.401 9.00678 6.79979L11.706 2.19578Z" stroke="#777777"/>
</svg>
