<svg width="35" height="35" viewBox="0 0 35 35" fill="none" xmlns="http://www.w3.org/2000/svg">
<circle cx="17.5" cy="17.5" r="17" stroke="#787878"/>
<path d="M28.0458 12.4859L28.0464 12.4881C28.2744 13.2636 28.3915 14.5025 28.4485 15.5872C28.4765 16.1214 28.4894 16.6044 28.4952 16.9539C28.4982 17.1285 28.4993 17.2695 28.4998 17.3665C28.5 17.415 28.5 17.4525 28.5 17.4776L28.4999 17.506L28.4999 17.513L28.4999 17.5146L28.4999 17.5149L28.4999 17.5149V17.5177V17.5177V17.518L28.4999 17.5196L28.4999 17.5266L28.4998 17.5549C28.4997 17.58 28.4995 17.6173 28.499 17.6656C28.4981 17.7622 28.4963 17.9026 28.4926 18.0765C28.4853 18.4246 28.4707 18.9057 28.4415 19.438C28.3822 20.5175 28.2653 21.7542 28.0455 22.5332C27.833 23.2659 27.2035 23.8662 26.3788 24.0733C25.9767 24.1718 25.231 24.2527 24.3002 24.3149C23.3816 24.3764 22.3203 24.4175 21.3109 24.445C20.3023 24.4725 19.3492 24.4863 18.6481 24.4931C18.2976 24.4966 18.0102 24.4983 17.8107 24.4991C17.7109 24.4996 17.633 24.4998 17.5802 24.4999L17.5202 24.5L17.5049 24.5L17.5011 24.5H17.5002H17.5L17.5 25L17.4999 24.5H17.4997H17.4988L17.495 24.5L17.4798 24.5L17.4199 24.4999C17.3673 24.4998 17.2896 24.4996 17.1901 24.4991C16.991 24.4982 16.7044 24.4964 16.3547 24.4929C15.6551 24.4857 14.7039 24.4714 13.6966 24.4429C12.6885 24.4143 11.6281 24.3715 10.7089 24.3076C9.7766 24.2429 9.02888 24.1587 8.62318 24.0564L8.62252 24.0562C7.79686 23.8491 7.16659 23.2483 6.95417 22.5148C6.73471 21.7456 6.61774 20.5095 6.55845 19.427C6.52924 18.8936 6.51461 18.4108 6.50729 18.0614C6.50364 17.8868 6.50181 17.7458 6.5009 17.6487C6.50045 17.6002 6.50022 17.5626 6.50011 17.5374L6.50001 17.509L6.5 17.502L6.5 17.5004L6.5 17.5V17.5L6.5 17.4996L6.5 17.498L6.50001 17.4911L6.50011 17.4628C6.50022 17.4377 6.50045 17.4004 6.5009 17.352C6.50181 17.2554 6.50363 17.115 6.50729 16.9411C6.5146 16.593 6.52923 16.1119 6.55845 15.5796C6.61769 14.5001 6.73458 13.2635 6.95436 12.4845C7.16702 11.7506 7.81674 11.1331 8.62216 10.9263C9.02465 10.8281 9.76966 10.7472 10.6995 10.6851C11.6182 10.6236 12.6794 10.5825 13.6888 10.555C14.6974 10.5275 15.6505 10.5137 16.3517 10.5069C16.7022 10.5034 16.9895 10.5017 17.1891 10.5009C17.2889 10.5004 17.3667 10.5002 17.4195 10.5001L17.4796 10.5L17.4948 10.5L17.4986 10.5L17.4995 10.5H17.4997L17.4998 10L17.4998 10.5H17.5L17.501 10.5L17.5047 10.5L17.52 10.5L17.58 10.5001C17.6328 10.5002 17.7106 10.5004 17.8104 10.5009C18.01 10.5018 18.2972 10.5036 18.6477 10.5071C19.3488 10.5143 20.3018 10.5286 21.3103 10.5571C22.3196 10.5857 23.3806 10.6285 24.2989 10.6924C25.2307 10.7571 25.9753 10.8413 26.3755 10.9433L26.3774 10.9438C27.2033 11.151 27.8338 11.7521 28.0458 12.4859Z" stroke="#777777"/>
<path d="M15 21L21 17.5L15 14V21Z" fill="white" stroke="#777777"/>
</svg>
