<?xml version="1.0" standalone="no"?>
<!DOCTYPE svg PUBLIC "-//W3C//DTD SVG 20010904//EN"
 "http://www.w3.org/TR/2001/REC-SVG-20010904/DTD/svg10.dtd">
<svg version="1.0" xmlns="http://www.w3.org/2000/svg"
 width="260.000000pt" height="260.000000pt" viewBox="0 0 260.000000 260.000000"
 preserveAspectRatio="xMidYMid meet">
<metadata>
Created by potrace 1.11, written by Peter Selinger 2001-2013
</metadata>
<g transform="translate(0.000000,260.000000) scale(0.100000,-0.100000)"
fill="#000000" stroke="none">
<path d="M2120 2589 c0 -5 -4 -7 -10 -4 -5 3 -10 1 -10 -4 0 -6 -5 -11 -11
-11 -6 0 -24 -9 -40 -21 -16 -11 -29 -18 -29 -14 0 3 -10 -3 -22 -14 -11 -11
-25 -18 -30 -15 -4 3 -11 -2 -14 -10 -3 -9 -10 -14 -14 -11 -4 3 -13 -2 -20
-10 -7 -8 -18 -15 -25 -15 -7 0 -24 -9 -38 -20 -14 -11 -33 -20 -42 -20 -9 0
-14 -4 -11 -9 7 -10 -22 -24 -34 -16 -4 3 -10 -2 -14 -10 -3 -8 -12 -15 -21
-15 -8 0 -15 -5 -15 -11 0 -5 -4 -7 -10 -4 -5 3 -10 2 -10 -3 0 -6 -13 -15
-29 -20 -16 -6 -39 -20 -50 -31 -12 -12 -21 -18 -21 -15 0 7 -84 -39 -88 -48
-2 -5 -9 -8 -17 -8 -7 0 -18 -7 -25 -15 -7 -8 -16 -13 -20 -10 -4 2 -17 -5
-29 -16 -12 -11 -25 -18 -30 -15 -5 3 -11 -1 -15 -9 -3 -8 -10 -15 -17 -15 -6
0 -23 -9 -37 -19 -15 -10 -31 -20 -37 -22 -5 -2 -9 -7 -8 -11 2 -4 -4 -5 -12
-2 -8 4 -15 1 -15 -5 0 -6 -8 -11 -18 -11 -10 0 -24 -9 -31 -19 -8 -11 -19
-17 -26 -15 -6 3 -18 -2 -25 -11 -7 -8 -19 -15 -26 -15 -8 0 -14 -4 -14 -10 0
-5 -7 -10 -15 -10 -8 0 -15 -5 -15 -11 0 -5 -4 -7 -10 -4 -5 3 -10 1 -10 -5 0
-6 -4 -9 -8 -6 -5 3 -19 -4 -30 -15 -12 -11 -22 -16 -22 -12 0 4 -4 3 -8 -3
-4 -5 -23 -18 -42 -27 -19 -10 -53 -28 -75 -42 -22 -14 -48 -28 -57 -31 -10
-4 -18 -11 -18 -16 0 -5 -4 -6 -10 -3 -5 3 -10 1 -10 -6 0 -7 -3 -10 -6 -6 -4
3 -22 -6 -41 -20 -18 -14 -36 -23 -40 -20 -3 4 -16 -5 -29 -18 -13 -14 -27
-25 -32 -25 -14 0 -62 -25 -62 -32 0 -5 -6 -8 -14 -8 -7 0 -19 -7 -26 -15 -7
-8 -20 -15 -30 -15 -10 0 -23 -7 -30 -15 -7 -8 -16 -12 -21 -9 -5 3 -9 -2 -9
-11 0 -9 -4 -14 -10 -10 -5 3 -18 -3 -29 -14 -11 -11 -22 -16 -26 -13 -3 4 -9
2 -13 -3 -4 -6 -24 -19 -45 -30 -20 -11 -37 -23 -37 -28 0 -4 -4 -5 -10 -2 -5
3 -10 1 -10 -5 0 -6 -4 -8 -10 -5 -5 3 -10 1 -10 -5 0 -6 -4 -9 -9 -6 -5 3
-14 -1 -21 -9 -7 -8 -19 -15 -26 -15 -8 0 -14 -4 -14 -10 0 -5 -11 -12 -25
-16 -14 -3 -25 -10 -25 -16 0 -5 -4 -6 -10 -3 -5 3 -10 1 -10 -4 0 -6 -6 -11
-14 -11 -7 0 -29 -15 -49 -32 -31 -29 -35 -38 -33 -78 2 -44 28 -90 51 -90 6
0 20 -7 30 -15 46 -35 97 -65 110 -65 8 0 15 -5 15 -11 0 -5 5 -7 10 -4 6 3
10 1 10 -4 0 -6 7 -11 15 -11 8 0 15 -4 15 -10 0 -5 6 -10 14 -10 8 0 21 -7
30 -15 8 -9 19 -16 23 -16 4 -1 34 -16 66 -35 32 -19 62 -34 68 -34 5 0 9 -3
9 -7 0 -5 10 -13 23 -18 37 -18 112 -60 117 -66 3 -3 21 -14 40 -24 19 -9 43
-24 53 -33 9 -8 17 -12 17 -7 0 4 7 2 15 -5 21 -17 76 -49 98 -56 9 -4 17 -11
17 -16 0 -5 4 -7 9 -4 5 4 11 2 13 -3 1 -5 10 -11 18 -13 8 -2 23 -11 34 -20
10 -10 23 -15 28 -12 4 3 8 0 8 -5 0 -6 6 -11 14 -11 7 0 19 -7 26 -15 7 -8
16 -13 20 -10 5 3 10 1 12 -4 1 -5 10 -11 18 -13 8 -2 23 -11 32 -21 9 -10 19
-18 22 -18 21 3 26 0 20 -11 -4 -6 -3 -8 4 -4 6 3 13 2 17 -4 4 -6 11 -8 16
-5 5 4 9 3 9 -2 0 -4 21 -19 48 -33 26 -13 49 -27 52 -30 3 -3 17 -11 33 -17
15 -7 27 -17 27 -23 0 -5 8 -10 19 -10 10 0 30 -9 44 -20 14 -11 33 -20 42
-20 9 0 14 -4 11 -8 -3 -5 11 -14 30 -21 18 -7 34 -17 34 -22 0 -6 4 -8 9 -5
5 3 14 -1 21 -9 7 -8 18 -15 25 -15 7 0 18 -7 25 -15 7 -8 16 -12 21 -9 5 3 9
0 9 -5 0 -6 7 -11 15 -11 8 0 15 -4 15 -9 0 -8 37 -24 53 -22 4 1 7 -3 7 -7 0
-5 18 -17 40 -27 22 -10 40 -21 40 -25 0 -8 39 -23 53 -21 4 1 7 -2 7 -7 0 -4
17 -16 38 -27 20 -11 39 -22 42 -25 3 -3 30 -18 60 -34 30 -16 58 -34 62 -40
5 -7 8 -7 8 -1 0 7 3 7 8 0 14 -20 110 -65 138 -65 23 0 26 2 14 10 -12 8 -11
10 8 10 32 0 94 71 73 84 -5 3 -6 18 -4 33 7 45 7 47 -1 72 -5 14 -4 21 1 18
5 -4 10 0 10 8 0 8 -3 15 -7 15 -3 0 -6 9 -7 20 -1 13 2 18 10 14 9 -5 9 -4 0
6 -8 9 -9 19 -3 31 7 11 7 20 0 24 -15 9 -12 27 3 19 9 -5 9 -4 0 6 -8 9 -9
19 -3 31 6 10 6 20 1 23 -4 3 -6 18 -4 33 7 45 7 47 -1 72 -5 14 -4 21 1 18 5
-4 10 0 10 8 0 8 -3 15 -7 15 -3 0 -6 9 -7 20 -1 13 2 18 10 14 9 -5 9 -4 0 6
-8 9 -9 19 -3 31 7 11 7 20 0 24 -15 9 -12 27 3 19 9 -5 9 -4 0 6 -8 9 -9 19
-3 31 6 10 6 20 1 23 -4 3 -6 18 -4 33 7 45 7 47 -1 72 -5 14 -4 21 1 18 5 -4
10 0 10 8 0 8 -3 15 -7 15 -3 0 -6 9 -7 20 -1 13 2 18 10 14 9 -5 9 -4 0 6 -8
9 -9 19 -3 31 7 11 7 20 0 24 -15 9 -12 27 3 19 9 -5 9 -4 0 6 -8 9 -9 19 -3
31 6 10 6 20 1 23 -4 3 -6 18 -4 33 7 45 7 47 -1 72 -5 14 -4 21 1 18 5 -4 10
0 10 8 0 8 -3 15 -7 15 -3 0 -6 9 -7 20 -1 13 2 18 10 14 9 -5 9 -4 0 6 -8 9
-9 19 -3 31 7 11 7 20 0 24 -15 9 -12 27 3 19 9 -5 9 -4 0 6 -8 9 -9 19 -3 31
6 10 6 20 1 23 -4 3 -6 18 -4 33 7 45 7 47 -1 72 -5 14 -4 21 1 18 5 -4 10 0
10 8 0 8 -3 15 -7 15 -3 0 -6 9 -7 20 -1 13 2 18 10 14 9 -5 9 -4 0 6 -8 9 -9
19 -3 31 7 11 7 20 0 24 -15 9 -12 27 3 19 9 -5 9 -4 0 6 -8 9 -9 19 -3 31 6
10 6 20 1 23 -4 3 -6 18 -4 33 7 45 7 47 -1 72 -5 14 -4 21 1 18 5 -4 10 0 10
8 0 8 -3 15 -7 15 -3 0 -6 9 -7 20 -1 13 2 18 10 14 9 -5 9 -4 0 6 -8 9 -9 19
-3 31 7 11 7 20 0 24 -15 9 -12 27 3 19 9 -5 9 -4 0 6 -8 9 -9 19 -3 31 6 10
6 20 1 23 -4 3 -6 18 -4 33 7 45 7 47 -1 72 -5 14 -4 21 1 18 5 -4 10 0 10 8
0 8 -3 15 -7 15 -3 0 -6 9 -7 20 -1 13 2 18 10 14 9 -5 9 -4 0 6 -8 9 -9 19
-3 31 7 11 7 20 0 24 -15 9 -12 27 3 19 9 -5 9 -4 0 6 -8 9 -9 19 -3 31 6 10
6 20 1 23 -4 3 -6 18 -4 33 7 45 7 47 -1 72 -5 14 -4 21 1 18 5 -4 10 0 10 8
0 8 -4 15 -9 15 -11 0 -6 23 7 32 6 5 5 8 -2 8 -7 0 -13 7 -13 15 0 8 -8 24
-17 35 -14 16 -30 20 -85 20 -41 0 -68 -4 -68 -11z"/>
</g>
</svg>
